<svg width="500" height="500" viewBox="0 0 500 500" fill="none" xmlns="http://www.w3.org/2000/svg">
<path d="M250 0C200.555 0 152.22 14.6622 111.108 42.1326C69.9952 69.6029 37.9521 108.648 19.0302 154.329C0.108321 200.011 -4.84251 250.277 4.80379 298.773C14.4501 347.268 38.2603 391.813 73.2234 426.777C108.187 461.74 152.732 485.55 201.228 495.196C249.723 504.843 299.989 499.892 345.671 480.97C391.352 462.048 430.397 430.005 457.867 388.892C485.338 347.78 500 299.445 500 250C500 183.696 473.661 120.107 426.777 73.2233C379.893 26.3392 316.304 0 250 0ZM214.286 349.836L125 260.55L153.404 232.143L214.286 293.021L346.607 160.714L375.102 189.034L214.286 349.836Z" fill="#ADFA1D"/>
</svg>
