<svg width="50" height="50" viewBox="0 0 50 50" fill="none" xmlns="http://www.w3.org/2000/svg">
<rect width="50" height="50" fill="url(#paint0_linear_234_20)"/>
<path d="M11.0598 19V15.24H9.54977V14.11H11.0598V13.28C11.0598 12.8 11.2198 12.4167 11.5398 12.13C11.8598 11.8433 12.2831 11.7 12.8098 11.7H14.4198V12.8H12.8398C12.6798 12.8 12.5498 12.8467 12.4498 12.94C12.3564 13.0267 12.3098 13.1467 12.3098 13.3V14.11H14.4198V15.24H12.3098V19H11.0598ZM18.5059 19.1C17.8059 19.1 17.2559 18.9067 16.8559 18.52C16.4559 18.1267 16.2559 17.5933 16.2559 16.92V13.5H17.5059V16.91C17.5059 17.2633 17.5925 17.5367 17.7659 17.73C17.9392 17.9167 18.1859 18.01 18.5059 18.01C18.8192 18.01 19.0625 17.9167 19.2359 17.73C19.4159 17.5367 19.5059 17.2633 19.5059 16.91V13.5H20.7559V16.92C20.7559 17.5933 20.5525 18.1267 20.1459 18.52C19.7392 18.9067 19.1925 19.1 18.5059 19.1ZM22.772 19V13.5H23.992V14.55H24.332L23.992 14.84C23.992 14.3867 24.122 14.0333 24.382 13.78C24.6486 13.5267 25.012 13.4 25.472 13.4C26.012 13.4 26.442 13.58 26.762 13.94C27.0886 14.3 27.252 14.7833 27.252 15.39V19H26.002V15.52C26.002 15.1867 25.9153 14.93 25.742 14.75C25.5686 14.57 25.3253 14.48 25.012 14.48C24.7053 14.48 24.462 14.5733 24.282 14.76C24.1086 14.9467 24.022 15.2133 24.022 15.56V19H22.772ZM29.268 19V13.5H30.488V14.55H30.828L30.488 14.84C30.488 14.3867 30.618 14.0333 30.878 13.78C31.1447 13.5267 31.508 13.4 31.968 13.4C32.508 13.4 32.938 13.58 33.258 13.94C33.5847 14.3 33.748 14.7833 33.748 15.39V19H32.498V15.52C32.498 15.1867 32.4114 14.93 32.238 14.75C32.0647 14.57 31.8214 14.48 31.508 14.48C31.2014 14.48 30.958 14.5733 30.778 14.76C30.6047 14.9467 30.518 15.2133 30.518 15.56V19H29.268ZM36.6541 20.8L37.4241 18.7L35.3741 13.5H36.7441L37.7641 16.31C37.8175 16.4633 37.8708 16.65 37.9241 16.87C37.9775 17.0833 38.0175 17.26 38.0441 17.4C38.0775 17.26 38.1208 17.0833 38.1741 16.87C38.2275 16.65 38.2808 16.4633 38.3341 16.31L39.2941 13.5H40.6141L37.9641 20.8H36.6541ZM18.0359 28.1C17.4892 28.1 17.0459 27.91 16.7059 27.53C16.3725 27.15 16.2059 26.64 16.2059 26V24.51C16.2059 23.8633 16.3725 23.35 16.7059 22.97C17.0392 22.59 17.4825 22.4 18.0359 22.4C18.4892 22.4 18.8492 22.53 19.1159 22.79C19.3825 23.0433 19.5159 23.3933 19.5159 23.84L19.2359 23.55H19.5259L19.4859 22.24V20.7H20.7359V28H19.5159V26.95H19.2359L19.5159 26.66C19.5159 27.1067 19.3825 27.46 19.1159 27.72C18.8492 27.9733 18.4892 28.1 18.0359 28.1ZM18.4759 27.02C18.7959 27.02 19.0425 26.9267 19.2159 26.74C19.3959 26.5467 19.4859 26.28 19.4859 25.94V24.56C19.4859 24.22 19.3959 23.9567 19.2159 23.77C19.0425 23.5767 18.7959 23.48 18.4759 23.48C18.1559 23.48 17.9059 23.5733 17.7259 23.76C17.5459 23.9467 17.4559 24.2133 17.4559 24.56V25.94C17.4559 26.2867 17.5459 26.5533 17.7259 26.74C17.9059 26.9267 18.1559 27.02 18.4759 27.02ZM25.002 28.09C24.5353 28.09 24.1286 28.0033 23.782 27.83C23.442 27.65 23.1753 27.4 22.982 27.08C22.7953 26.7533 22.702 26.37 22.702 25.93V24.57C22.702 24.13 22.7953 23.75 22.982 23.43C23.1753 23.1033 23.442 22.8533 23.782 22.68C24.1286 22.5 24.5353 22.41 25.002 22.41C25.4753 22.41 25.882 22.5 26.222 22.68C26.562 22.8533 26.8253 23.1033 27.012 23.43C27.2053 23.75 27.302 24.1267 27.302 24.56V25.93C27.302 26.37 27.2053 26.7533 27.012 27.08C26.8253 27.4 26.562 27.65 26.222 27.83C25.882 28.0033 25.4753 28.09 25.002 28.09ZM25.002 27C25.3353 27 25.592 26.91 25.772 26.73C25.9586 26.5433 26.052 26.2767 26.052 25.93V24.57C26.052 24.2167 25.9586 23.95 25.772 23.77C25.592 23.59 25.3353 23.5 25.002 23.5C24.6753 23.5 24.4186 23.59 24.232 23.77C24.0453 23.95 23.952 24.2167 23.952 24.57V25.93C23.952 26.2767 24.0453 26.5433 24.232 26.73C24.4186 26.91 24.6753 27 25.002 27ZM32.098 28C31.5714 28 31.158 27.8533 30.858 27.56C30.5647 27.2667 30.418 26.8633 30.418 26.35V23.63H28.928V22.5H30.418V20.95H31.678V22.5H33.788V23.63H31.678V26.35C31.678 26.6967 31.848 26.87 32.188 26.87H33.688V28H32.098ZM9.52977 37V31.5H10.5498V32.24H10.7598L10.5898 32.42C10.5898 32.1133 10.6764 31.8667 10.8498 31.68C11.0231 31.4933 11.2464 31.4 11.5198 31.4C11.8131 31.4 12.0398 31.52 12.1998 31.76C12.3664 32 12.4498 32.3233 12.4498 32.73L12.2298 32.24H12.5698L12.4398 32.42C12.4398 32.1133 12.5264 31.8667 12.6998 31.68C12.8731 31.4933 13.1031 31.4 13.3898 31.4C13.7298 31.4 13.9998 31.5267 14.1998 31.78C14.3998 32.0333 14.4998 32.3767 14.4998 32.81V37H13.3998V32.86C13.3998 32.68 13.3598 32.54 13.2798 32.44C13.1998 32.3333 13.0831 32.28 12.9298 32.28C12.7831 32.28 12.6664 32.33 12.5798 32.43C12.4998 32.53 12.4598 32.6733 12.4598 32.86V37H11.5598V32.86C11.5598 32.6733 11.5198 32.53 11.4398 32.43C11.3598 32.33 11.2431 32.28 11.0898 32.28C10.9364 32.28 10.8198 32.33 10.7398 32.43C10.6664 32.53 10.6298 32.6733 10.6298 32.86V37H9.52977ZM18.5059 37.09C18.0392 37.09 17.6325 37.0033 17.2859 36.83C16.9459 36.65 16.6792 36.4 16.4859 36.08C16.2992 35.7533 16.2059 35.37 16.2059 34.93V33.57C16.2059 33.13 16.2992 32.75 16.4859 32.43C16.6792 32.1033 16.9459 31.8533 17.2859 31.68C17.6325 31.5 18.0392 31.41 18.5059 31.41C18.9792 31.41 19.3859 31.5 19.7259 31.68C20.0659 31.8533 20.3292 32.1033 20.5159 32.43C20.7092 32.75 20.8059 33.1267 20.8059 33.56V34.93C20.8059 35.37 20.7092 35.7533 20.5159 36.08C20.3292 36.4 20.0659 36.65 19.7259 36.83C19.3859 37.0033 18.9792 37.09 18.5059 37.09ZM18.5059 36C18.8392 36 19.0959 35.91 19.2759 35.73C19.4625 35.5433 19.5559 35.2767 19.5559 34.93V33.57C19.5559 33.2167 19.4625 32.95 19.2759 32.77C19.0959 32.59 18.8392 32.5 18.5059 32.5C18.1792 32.5 17.9225 32.59 17.7359 32.77C17.5492 32.95 17.4559 33.2167 17.4559 33.57V34.93C17.4559 35.2767 17.5492 35.5433 17.7359 35.73C17.9225 35.91 18.1792 36 18.5059 36ZM22.772 37V31.5H23.992V32.55H24.332L23.992 32.84C23.992 32.3867 24.122 32.0333 24.382 31.78C24.6486 31.5267 25.012 31.4 25.472 31.4C26.012 31.4 26.442 31.58 26.762 31.94C27.0886 32.3 27.252 32.7833 27.252 33.39V37H26.002V33.52C26.002 33.1867 25.9153 32.93 25.742 32.75C25.5686 32.57 25.3253 32.48 25.012 32.48C24.7053 32.48 24.462 32.5733 24.282 32.76C24.1086 32.9467 24.022 33.2133 24.022 33.56V37H22.772ZM31.508 37.1C31.0414 37.1 30.6347 37.01 30.288 36.83C29.9414 36.65 29.6714 36.4 29.478 36.08C29.2914 35.7533 29.198 35.3733 29.198 34.94V33.56C29.198 33.1267 29.2914 32.75 29.478 32.43C29.6714 32.1033 29.9414 31.85 30.288 31.67C30.6347 31.49 31.0414 31.4 31.508 31.4C31.968 31.4 32.368 31.49 32.708 31.67C33.0547 31.85 33.3214 32.1033 33.508 32.43C33.7014 32.75 33.798 33.1267 33.798 33.56V34.55H30.408V34.94C30.408 35.3267 30.5014 35.62 30.688 35.82C30.8747 36.0133 31.1514 36.11 31.518 36.11C31.798 36.11 32.0247 36.0633 32.198 35.97C32.3714 35.87 32.4814 35.7267 32.528 35.54H33.758C33.6647 36.0133 33.4114 36.3933 32.998 36.68C32.5914 36.96 32.0947 37.1 31.508 37.1ZM32.588 33.85V33.55C32.588 33.17 32.498 32.88 32.318 32.68C32.138 32.4733 31.868 32.37 31.508 32.37C31.148 32.37 30.8747 32.4733 30.688 32.68C30.5014 32.8867 30.408 33.18 30.408 33.56V33.77L32.678 33.75L32.588 33.85ZM36.6541 38.8L37.4241 36.7L35.3741 31.5H36.7441L37.7641 34.31C37.8175 34.4633 37.8708 34.65 37.9241 34.87C37.9775 35.0833 38.0175 35.26 38.0441 35.4C38.0775 35.26 38.1208 35.0833 38.1741 34.87C38.2275 34.65 38.2808 34.4633 38.3341 34.31L39.2941 31.5H40.6141L37.9641 38.8H36.6541Z" fill="#1A2C19"/>
<rect width="50" height="50" fill="url(#paint1_linear_234_20)"/>
<defs>
<linearGradient id="paint0_linear_234_20" x1="0" y1="25" x2="50" y2="25" gradientUnits="userSpaceOnUse">
<stop stop-color="#B5F327"/>
<stop offset="1" stop-color="#FF82EC"/>
</linearGradient>
<linearGradient id="paint1_linear_234_20" x1="0" y1="0" x2="50" y2="50" gradientUnits="userSpaceOnUse">
<stop stop-color="#B5F327" stop-opacity="0.1"/>
<stop offset="1" stop-color="#FF82EC" stop-opacity="0.1"/>
</linearGradient>
</defs>
</svg>
