<svg width="298" height="28" viewBox="0 0 298 28" fill="none" xmlns="http://www.w3.org/2000/svg">
<path d="M7.64 25.88C5.208 25.24 3.328 24.112 2 22.496C0.672 20.864 0.00800025 18.88 0.00800025 16.544V12.2C0.00800025 10.664 0.312 9.272 0.92 8.024C1.544 6.76 2.424 5.688 3.56 4.808C4.712 3.912 6.072 3.256 7.64 2.84V5.792C6.696 6.016 5.872 6.424 5.168 7.016C4.48 7.608 3.952 8.344 3.584 9.224C3.216 10.104 3.032 11.096 3.032 12.2V16.544C3.032 17.616 3.216 18.592 3.584 19.472C3.952 20.336 4.48 21.064 5.168 21.656C5.872 22.232 6.696 22.632 7.64 22.856V25.88ZM12.7906 24.68H36.7906V0.68H12.7906V24.68ZM42.7906 26.84L44.7106 19.376H48.5506L45.4306 26.84H42.7906ZM55.9813 24.68H79.9813V0.68H55.9813V24.68ZM85.1412 25.88V22.856C86.1012 22.632 86.9252 22.232 87.6132 21.656C88.3012 21.064 88.8292 20.336 89.1972 19.472C89.5652 18.592 89.7492 17.616 89.7492 16.544V12.2C89.7492 11.096 89.5652 10.104 89.1972 9.224C88.8292 8.344 88.3012 7.608 87.6132 7.016C86.9252 6.424 86.1012 6.016 85.1412 5.792V2.84C86.7252 3.256 88.0852 3.912 89.2212 4.808C90.3572 5.688 91.2292 6.76 91.8372 8.024C92.4612 9.272 92.7732 10.664 92.7732 12.2V16.544C92.7732 18.88 92.1092 20.864 90.7812 22.496C89.4532 24.112 87.5732 25.24 85.1412 25.88ZM120.883 23V13.976H117.259V11.264H120.883V9.272C120.883 8.12 121.267 7.2 122.035 6.512C122.803 5.824 123.819 5.48 125.083 5.48H128.947V8.12H125.155C124.771 8.12 124.459 8.232 124.219 8.456C123.995 8.664 123.883 8.952 123.883 9.32V11.264H128.947V13.976H123.883V23H120.883ZM139.953 23.24C138.273 23.24 136.953 22.776 135.993 21.848C135.033 20.904 134.553 19.624 134.553 18.008V9.8H137.553V17.984C137.553 18.832 137.761 19.488 138.177 19.952C138.593 20.4 139.185 20.624 139.953 20.624C140.705 20.624 141.289 20.4 141.705 19.952C142.137 19.488 142.353 18.832 142.353 17.984V9.8H145.353V18.008C145.353 19.624 144.865 20.904 143.889 21.848C142.913 22.776 141.601 23.24 139.953 23.24ZM151.392 23V9.8H154.32V12.32H155.136L154.32 13.016C154.32 11.928 154.632 11.08 155.256 10.472C155.896 9.864 156.768 9.56 157.872 9.56C159.168 9.56 160.2 9.992 160.968 10.856C161.752 11.72 162.144 12.88 162.144 14.336V23H159.144V14.648C159.144 13.848 158.936 13.232 158.52 12.8C158.104 12.368 157.52 12.152 156.768 12.152C156.032 12.152 155.448 12.376 155.016 12.824C154.6 13.272 154.392 13.912 154.392 14.744V23H151.392ZM168.182 23V9.8H171.11V12.32H171.926L171.11 13.016C171.11 11.928 171.422 11.08 172.046 10.472C172.686 9.864 173.558 9.56 174.662 9.56C175.958 9.56 176.99 9.992 177.758 10.856C178.542 11.72 178.934 12.88 178.934 14.336V23H175.934V14.648C175.934 13.848 175.726 13.232 175.31 12.8C174.894 12.368 174.31 12.152 173.558 12.152C172.822 12.152 172.238 12.376 171.806 12.824C171.39 13.272 171.182 13.912 171.182 14.744V23H168.182ZM187.109 27.32L188.957 22.28L184.037 9.8H187.325L189.773 16.544C189.901 16.912 190.029 17.36 190.157 17.888C190.285 18.4 190.381 18.824 190.445 19.16C190.525 18.824 190.629 18.4 190.757 17.888C190.885 17.36 191.013 16.912 191.141 16.544L193.445 9.8H196.613L190.253 27.32H187.109ZM207.116 23.24C206.428 23.24 205.876 23.04 205.46 22.64C205.06 22.24 204.86 21.696 204.86 21.008C204.86 20.32 205.06 19.776 205.46 19.376C205.876 18.96 206.428 18.752 207.116 18.752C207.804 18.752 208.348 18.96 208.748 19.376C209.164 19.776 209.372 20.32 209.372 21.008C209.372 21.696 209.164 22.24 208.748 22.64C208.348 23.04 207.804 23.24 207.116 23.24ZM217.954 23V9.8H220.402V11.576H220.906L220.498 12.008C220.498 11.272 220.706 10.68 221.122 10.232C221.538 9.784 222.074 9.56 222.73 9.56C223.434 9.56 223.978 9.848 224.362 10.424C224.762 11 224.962 11.776 224.962 12.752L224.434 11.576H225.25L224.938 12.008C224.938 11.272 225.146 10.68 225.562 10.232C225.978 9.784 226.53 9.56 227.218 9.56C228.034 9.56 228.682 9.864 229.162 10.472C229.642 11.08 229.882 11.904 229.882 12.944V23H227.242V13.064C227.242 12.632 227.146 12.296 226.954 12.056C226.762 11.8 226.482 11.672 226.114 11.672C225.762 11.672 225.482 11.792 225.274 12.032C225.082 12.272 224.986 12.616 224.986 13.064V23H222.826V13.064C222.826 12.616 222.73 12.272 222.538 12.032C222.346 11.792 222.066 11.672 221.698 11.672C221.33 11.672 221.05 11.792 220.858 12.032C220.682 12.272 220.594 12.616 220.594 13.064V23H217.954ZM240.697 23.216C239.577 23.216 238.601 23.008 237.769 22.592C236.953 22.16 236.313 21.56 235.849 20.792C235.401 20.008 235.177 19.088 235.177 18.032V14.768C235.177 13.712 235.401 12.8 235.849 12.032C236.313 11.248 236.953 10.648 237.769 10.232C238.601 9.8 239.577 9.584 240.697 9.584C241.833 9.584 242.809 9.8 243.625 10.232C244.441 10.648 245.073 11.248 245.521 12.032C245.985 12.8 246.217 13.704 246.217 14.744V18.032C246.217 19.088 245.985 20.008 245.521 20.792C245.073 21.56 244.441 22.16 243.625 22.592C242.809 23.008 241.833 23.216 240.697 23.216ZM240.697 20.6C241.497 20.6 242.113 20.384 242.545 19.952C242.993 19.504 243.217 18.864 243.217 18.032V14.768C243.217 13.92 242.993 13.28 242.545 12.848C242.113 12.416 241.497 12.2 240.697 12.2C239.913 12.2 239.297 12.416 238.849 12.848C238.401 13.28 238.177 13.92 238.177 14.768V18.032C238.177 18.864 238.401 19.504 238.849 19.952C239.297 20.384 239.913 20.6 240.697 20.6ZM252.136 23V9.8H255.064V12.32H255.88L255.064 13.016C255.064 11.928 255.376 11.08 256 10.472C256.64 9.864 257.512 9.56 258.616 9.56C259.912 9.56 260.944 9.992 261.712 10.856C262.496 11.72 262.888 12.88 262.888 14.336V23H259.888V14.648C259.888 13.848 259.68 13.232 259.264 12.8C258.848 12.368 258.264 12.152 257.512 12.152C256.776 12.152 256.192 12.376 255.76 12.824C255.344 13.272 255.136 13.912 255.136 14.744V23H252.136ZM274.302 23.24C273.182 23.24 272.206 23.024 271.374 22.592C270.542 22.16 269.894 21.56 269.43 20.792C268.982 20.008 268.758 19.096 268.758 18.056V14.744C268.758 13.704 268.982 12.8 269.43 12.032C269.894 11.248 270.542 10.64 271.374 10.208C272.206 9.776 273.182 9.56 274.302 9.56C275.406 9.56 276.366 9.776 277.182 10.208C278.014 10.64 278.654 11.248 279.102 12.032C279.566 12.8 279.798 13.704 279.798 14.744V17.12H271.662V18.056C271.662 18.984 271.886 19.688 272.334 20.168C272.782 20.632 273.446 20.864 274.326 20.864C274.998 20.864 275.542 20.752 275.958 20.528C276.374 20.288 276.638 19.944 276.75 19.496H279.702C279.478 20.632 278.87 21.544 277.878 22.232C276.902 22.904 275.71 23.24 274.302 23.24ZM276.894 15.44V14.72C276.894 13.808 276.678 13.112 276.246 12.632C275.814 12.136 275.166 11.888 274.302 11.888C273.438 11.888 272.782 12.136 272.334 12.632C271.886 13.128 271.662 13.832 271.662 14.744V15.248L277.11 15.2L276.894 15.44ZM287.853 27.32L289.701 22.28L284.781 9.8H288.069L290.517 16.544C290.645 16.912 290.773 17.36 290.901 17.888C291.029 18.4 291.125 18.824 291.189 19.16C291.269 18.824 291.373 18.4 291.501 17.888C291.629 17.36 291.757 16.912 291.885 16.544L294.189 9.8H297.357L290.997 27.32H287.853Z" fill="white"/>
</svg>
